<svg width="45" height="45" viewBox="0 0 45 45" fill="none" xmlns="http://www.w3.org/2000/svg">
<path d="M2.09542 12.9249C2.39812 13.0867 2.76446 13.1688 3.21306 13.1116C8.03874 12.4999 37.7562 12.1843 42.6055 11.8812C45.5609 11.6963 44.5612 7.80747 44.5809 5.86845C44.6041 3.73469 45.71 0 42.301 0C37.3616 0.00093088 7.56042 0.0230858 2.61891 0.307749C-0.116675 0.465626 0.534085 3.52859 0.70864 5.52496C0.91097 7.83149 -0.395471 11.5919 2.09542 12.9249ZM40.3744 4.61865C40.3744 4.61865 39.8607 6.14436 40.4623 7.40477C37.0381 7.62558 8.74768 7.88027 5.33656 8.25448C5.37224 6.08628 4.84559 4.82084 4.84559 4.82084C8.39699 4.66855 36.8195 4.6261 40.3744 4.61865Z" fill="black"/>
<path d="M26.4203 16.7464C23.3694 16.4848 4.94155 16.4643 1.88736 16.4634C-0.696386 16.4626 -0.499141 27.184 1.69924 27.3882C4.69768 27.6673 23.0693 27.9576 26.0523 28.52C26.3293 28.5722 26.5564 28.4974 26.7434 28.3478C27.3643 27.854 27.5635 27.1768 27.5988 26.4015C27.6458 25.3678 27.399 24.1612 27.4701 22.9837C27.5584 21.5215 28.1638 19.2325 27.5546 17.8939C27.3566 17.2754 26.9802 16.7947 26.4203 16.7464ZM24.7391 24.0535C22.6303 23.7092 5.13999 23.4762 3.02366 23.2729C3.39554 22.1137 3.078 20.7104 3.078 20.7104C5.27572 20.7174 22.8471 20.7566 25.0426 20.8965C25.0427 20.8967 24.717 22.0603 24.7391 24.0535Z" fill="black"/>
<path d="M27.098 32.5246C26.8812 32.1074 26.5624 31.8293 26.1383 31.8293C23.0856 31.8302 4.66709 31.853 1.61672 32.1374C-0.67233 32.3565 -0.298027 43.4093 1.29488 44.7941C1.48192 44.9573 1.70894 45.0389 1.98549 44.9819C4.96731 44.3682 23.33 44.0517 26.3271 43.7471C28.2945 43.548 27.5395 37.3896 27.7959 35.068C27.9254 33.889 27.5767 32.9911 27.098 32.5246ZM3.2975 40.1093C3.31955 37.9338 2.99413 36.665 2.99413 36.665C5.18857 36.5114 22.7511 36.4696 24.9476 36.4619C24.9476 36.4619 24.6302 37.9926 25.0019 39.2558C22.8867 39.4777 5.40538 39.7337 3.2975 40.1093Z" fill="black"/>
<path d="M44.391 25.2971C44.2248 25.1496 44.0047 25.0543 43.7235 25.0543H39.7444C39.6809 23.6564 39.6535 22.257 39.5748 20.8599C39.5396 20.2316 39.0999 19.8826 38.6292 19.811C38.5284 19.7789 38.4206 19.7561 38.298 19.7561H34.5741C34.0965 19.7561 33.7889 20.0257 33.6438 20.3749C33.4352 20.5527 33.2942 20.8234 33.2977 21.1911C33.3106 22.622 33.4425 24.0411 33.6036 25.4595C32.4735 25.5455 31.3426 25.6327 30.2126 25.7167C30.0264 25.7306 29.8684 25.7867 29.7327 25.8678C29.2796 25.9936 28.9361 26.4252 28.9361 26.9309V27.1518C28.9361 27.3335 28.9846 27.5034 29.0614 27.656C29.1428 28.7368 29.1485 29.8208 29.1489 30.905C29.1489 31.4861 29.5046 31.8263 29.9245 31.9325C30.0407 31.9793 30.1702 32.0089 30.3187 32.0089H33.949C33.9754 33.2236 34.0365 34.437 34.0423 35.6516C34.0449 36.2232 34.3903 36.5609 34.8006 36.674C34.9213 36.7244 35.0566 36.7561 35.2125 36.7561H38.8298C39.1427 36.7561 39.3803 36.6379 39.5507 36.4603C39.5615 36.4513 39.5713 36.4401 39.5821 36.4302C39.5904 36.4203 39.6 36.4112 39.608 36.4008C39.7796 36.224 39.8939 35.9771 39.8939 35.6516C39.8939 34.3632 39.8835 33.0757 39.8296 31.7886H43.8298C44.4616 31.7886 44.7991 31.3204 44.8491 30.8154C44.9408 30.66 45 30.4721 45 30.2433V26.2697C45.0003 25.7663 44.7341 25.4452 44.391 25.2971ZM42.8727 29.5802H38.7236C38.1169 29.5802 37.7795 30.0115 37.7096 30.4928C37.6713 30.6141 37.6504 30.7488 37.6599 30.9046C37.7329 32.118 37.7562 33.3327 37.7631 34.5472H36.152C36.1229 33.4436 36.0698 32.34 36.0641 31.2355C36.0637 31.1301 36.048 31.035 36.0263 30.9454C36.0435 30.3801 35.7034 29.8005 35.0004 29.8005H31.2716C31.265 29.1496 31.2425 28.4989 31.1993 27.8496C32.324 27.7637 33.4489 27.677 34.574 27.5933C34.6746 27.586 34.7651 27.5642 34.8507 27.5352C35.4066 27.5662 35.9391 27.2223 35.8513 26.4893C35.6706 24.9833 35.5071 23.4786 35.4509 21.9636H37.4987C37.5522 23.288 37.5805 24.6138 37.66 25.937C37.6646 26.0171 37.678 26.0915 37.6952 26.1624C37.6967 26.7128 38.0394 27.2616 38.7237 27.2616H42.8728V29.5802H42.8727Z" fill="black"/>
</svg>
