<svg viewBox="0 0 40 40" fill="none" xmlns="http://www.w3.org/2000/svg">
<path d="M39.7683 19.4L30.8796 11.298C30.6326 11.0975 30.3627 11.0589 30.0694 11.1823C29.7765 11.306 29.6294 11.5296 29.6294 11.8538V17.0391H0.740723C0.52457 17.0391 0.347011 17.1084 0.208288 17.2473C0.0696454 17.3861 0 17.5636 0 17.7796V22.2239C0 22.4399 0.0693211 22.6174 0.208207 22.7561C0.347254 22.8949 0.524814 22.9642 0.740642 22.9642H29.6296V28.1493C29.6296 28.4584 29.7769 28.682 30.0696 28.8205C30.3631 28.9445 30.6331 28.8976 30.8801 28.682L39.7688 20.4869C39.9231 20.3327 40 20.1479 40 19.9316C40 19.7316 39.9226 19.5543 39.7683 19.4Z" fill="black"/>
</svg>
