<svg viewBox="0 0 38 38" fill="none" xmlns="http://www.w3.org/2000/svg">
  <path d="M25.27 19.0012L37.0258 7.24539C38.3247 5.9465 38.3247 3.84066 37.0258 2.5438L35.4586 0.976605C34.1593 -0.322694 32.0534 -0.322694 30.7566 0.976605L19.0012 12.732L7.24539 0.97417C5.9465 -0.324723 3.84066 -0.324723 2.5438 0.97417L0.97417 2.54137C-0.324723 3.84066 -0.324723 5.9465 0.97417 7.24336L12.732 19.0012L0.976605 30.7566C-0.322694 32.0559 -0.322694 34.1617 0.976605 35.4586L2.5438 37.0258C3.84269 38.3247 5.94852 38.3247 7.24539 37.0258L19.0012 25.27L30.7566 37.0258C32.0559 38.3247 34.1617 38.3247 35.4586 37.0258L37.0258 35.4586C38.3247 34.1593 38.3247 32.0534 37.0258 30.7566L25.27 19.0012Z" fill="currentColor"/>
</svg>
