<svg viewBox="0 0 45 45" fill="none" xmlns="http://www.w3.org/2000/svg">
  <g clip-path="url(#clip0)">
    <path d="M27.7899 7.55821L3.03027 32.3196C2.9057 32.4446 2.81576 32.6023 2.77293 32.7719L0.0285549 43.7872C-0.0535371 44.1187 0.0439026 44.4714 0.285895 44.7134C0.468996 44.8965 0.718484 44.9978 0.973683 44.9978C1.05185 44.9978 1.1318 44.9882 1.20961 44.9686L12.2249 42.2238C12.3966 42.181 12.5526 42.0914 12.6771 41.9669L37.4389 17.2072L27.7899 7.55821Z" fill="currentColor"/>
    <path d="M43.573 4.18209L40.8168 1.42594C38.9747 -0.416128 35.7642 -0.414343 33.9243 1.42594L30.5482 4.80206L40.1968 14.4507L43.573 11.0746C44.4931 10.1548 44.9999 8.93057 44.9999 7.62852C44.9999 6.32647 44.4931 5.10223 43.573 4.18209Z" fill="currentColor"/>
  </g>
  <defs>
    <clipPath id="clip0">
      <rect width="45" height="45" fill="white"/>
    </clipPath>
  </defs>
</svg>
