<svg width="45" height="45" viewBox="0 0 45 45" fill="none" xmlns="http://www.w3.org/2000/svg">
<path d="M1.35527 39.5329C2.16777 39.954 3.1579 39.8816 3.90461 39.3355L19.6513 27.9046L19.6513 32.0198L19.6513 37.3388C19.6513 38.2698 20.1743 39.1086 21.0033 39.5329C21.8191 39.954 22.8092 39.8816 23.5559 39.3355L43.9934 24.4967C44.6217 24.0329 45 23.2961 45 22.5066C45 21.7171 44.625 20.977 43.9934 20.5198L23.5559 5.67765C23.1349 5.36844 22.625 5.20068 22.1118 5.20068C21.7368 5.20068 21.3553 5.29936 21.0033 5.4737C20.1743 5.89805 19.6513 6.75002 19.6513 7.6612L19.6513 12.9869L19.6513 17.1119L3.90461 5.67436C3.48027 5.36515 2.97369 5.19738 2.46053 5.19738C2.08882 5.19738 1.70724 5.29607 1.35527 5.47041C0.523032 5.89475 2.88995e-06 6.74673 2.81029e-06 7.65791L2.34471e-06 12.9836L6.80803e-07 32.0165L2.15506e-07 37.3388C1.3441e-07 38.2665 0.523029 39.1086 1.35527 39.5329Z" fill="#030104"/>
</svg>
