<svg width="45" height="45" viewBox="0 0 45 45" fill="none" xmlns="http://www.w3.org/2000/svg">
<path d="M43.6447 6.27103C42.8322 5.84997 41.8421 5.92234 41.0954 6.4684L25.3487 17.8993V13.7842V8.46511C25.3487 7.53418 24.8257 6.69537 23.9967 6.27103C23.1809 5.84997 22.1908 5.92234 21.4441 6.4684L1.00658 21.3072C0.378289 21.771 0 22.5079 0 23.2973C0 24.0868 0.375 24.8269 1.00658 25.2842L21.4441 40.1263C21.8651 40.4355 22.375 40.6033 22.8882 40.6033C23.2632 40.6033 23.6447 40.5046 23.9967 40.3302C24.8257 39.9059 25.3487 39.0539 25.3487 38.1427V32.8171V28.6921L41.0954 40.1296C41.5197 40.4388 42.0263 40.6066 42.5395 40.6066C42.9112 40.6066 43.2928 40.5079 43.6447 40.3335C44.477 39.9092 45 39.0572 45 38.146V32.8204V13.7875V8.46511C45 7.53747 44.477 6.69537 43.6447 6.27103Z" fill="#030104"/>
</svg>
