<svg viewBox="0 0 45 45" fill="none" xmlns="http://www.w3.org/2000/svg">
<path d="M4.65522 5.43103C2.08397 5.43103 0 7.515 0 10.0862C0 12.6574 2.08397 14.7414 4.65522 14.7414C7.2264 14.7414 9.31037 12.6574 9.31037 10.0862C9.31037 7.51493 7.2264 5.43103 4.65522 5.43103ZM4.65522 17.8448C2.08397 17.8448 0 19.9288 0 22.5C0 25.0712 2.08397 27.1552 4.65522 27.1552C7.2264 27.1552 9.31037 25.0712 9.31037 22.5C9.31037 19.9288 7.2264 17.8448 4.65522 17.8448ZM4.65522 30.2587C2.08397 30.2587 0 32.3426 0 34.9137C0 37.485 2.08397 39.569 4.65522 39.569C7.2264 39.569 9.31037 37.485 9.31037 34.9137C9.31037 32.3426 7.2264 30.2587 4.65522 30.2587ZM17.069 13.1896H41.8965C43.6112 13.1896 45 11.8008 45 10.0862C45 8.37154 43.6112 6.98272 41.8965 6.98272H17.069C15.3543 6.98272 13.9655 8.37154 13.9655 10.0862C13.9655 11.8008 15.3543 13.1896 17.069 13.1896ZM41.8965 19.3965H17.069C15.3543 19.3965 13.9655 20.7854 13.9655 22.5C13.9655 24.2146 15.3543 25.6035 17.069 25.6035H41.8965C43.6112 25.6035 45 24.2146 45 22.5C45 20.7854 43.6112 19.3965 41.8965 19.3965ZM41.8965 31.8104H17.069C15.3543 31.8104 13.9655 33.1991 13.9655 34.9137C13.9655 36.6284 15.3543 38.0172 17.069 38.0172H41.8965C43.6112 38.0172 45 36.6284 45 34.9137C45 33.1991 43.6112 31.8104 41.8965 31.8104Z" fill="black"/>
</svg>
