<svg viewBox="0 0 45 45" fill="none" xmlns="http://www.w3.org/2000/svg">
  <path d="M22.4999 31.1531C24.88 31.1531 26.9169 30.3057 28.6115 28.6118C30.3058 26.9178 31.1531 24.8799 31.1531 22.5V8.65408C31.1531 6.27415 30.3065 4.23711 28.6115 2.54228C26.9169 0.847838 24.88 0 22.4999 0C20.12 0 18.0829 0.847838 16.3882 2.54228C14.6933 4.23682 13.8461 6.27415 13.8461 8.65408V22.5C13.8461 24.8798 14.6937 26.9178 16.3882 28.6118C18.0826 30.3057 20.12 31.1531 22.4999 31.1531Z" fill="currentColor" />
  <path d="M37.5624 17.8216C37.2208 17.4789 36.8143 17.3076 36.3455 17.3076C35.8772 17.3076 35.4717 17.4789 35.1287 17.8216C34.7864 18.1641 34.6152 18.5696 34.6152 19.0382V22.5C34.6152 25.8354 33.4295 28.6883 31.0587 31.059C28.6886 33.4299 25.8353 34.6153 22.4998 34.6153C19.1643 34.6153 16.3113 33.4299 13.9404 31.059C11.5697 28.689 10.3845 25.8355 10.3845 22.5V19.0382C10.3845 18.5696 10.2132 18.1641 9.87076 17.8216C9.52816 17.4789 9.12294 17.3076 8.65389 17.3076C8.18484 17.3076 7.77915 17.4789 7.43674 17.8216C7.09404 18.1641 6.92279 18.5696 6.92279 19.0382V22.5C6.92279 26.4844 8.25266 29.9505 10.9116 32.8979C13.5707 35.8454 16.8564 37.5355 20.7689 37.9679V41.538H13.846C13.3772 41.538 12.9716 41.7095 12.6291 42.0521C12.2865 42.3945 12.1151 42.8002 12.1151 43.269C12.1151 43.737 12.2865 44.1435 12.6291 44.4859C12.9716 44.8282 13.3772 45 13.846 45H31.1531C31.6218 45 32.0279 44.8283 32.37 44.4859C32.7129 44.1436 32.8844 43.7371 32.8844 43.269C32.8844 42.8003 32.7129 42.3945 32.37 42.0521C32.028 41.7095 31.6219 41.538 31.1531 41.538H24.231V37.9679C28.1428 37.5355 31.4282 35.8454 34.0876 32.8979C36.747 29.9505 38.0772 26.4844 38.0772 22.5V19.0382C38.0772 18.5697 37.9055 18.1644 37.5624 17.8216Z" fill="currentColor" />
</svg>
