<svg viewBox="0 0 45 45" fill="none" xmlns="http://www.w3.org/2000/svg">
  <g clip-path="url(#clip0)">
    <path d="M33.3719 18.3133L8.35437 1.10523C7.32641 0.396599 6.25726 0.0225983 5.34195 0.0225983C3.33233 0.0225983 2 1.70815 2 4.42057V40.6028C2 41.9278 2.3853 43.0349 2.95651 43.8055C3.53646 44.5866 4.44376 45 5.42396 45C6.33892 45 7.36578 44.6253 8.39337 43.9177L33.3883 26.7097C34.9952 25.6023 35.8762 24.1117 35.8759 22.5108C35.8759 20.9105 34.9809 19.42 33.3719 18.3133Z" fill="currentColor"/>
    <path d="M42.5313 44.9887L42.5046 44.9884C42.5002 44.9884 42.4959 44.9887 42.4915 44.9887H42.5313Z" fill="currentColor"/>
    <path d="M42.4576 0L41.4235 0.00291618C40.0693 0.00291618 38.897 1.10669 38.897 2.46272V42.5027C38.897 43.8601 40.05 44.9745 41.406 44.9745L42.5046 44.9883C43.8538 44.9811 44.87 43.8572 44.87 42.5048V2.46017C44.87 1.10414 43.8129 0 42.4576 0Z" fill="currentColor"/>
  </g>
  <defs>
    <clipPath id="clip0">
      <rect width="45" height="45" fill="white"/>
    </clipPath>
  </defs>
</svg>
