<svg viewBox="0 0 45 45" fill="none" xmlns="http://www.w3.org/2000/svg">
  <path d="M14.1874 0H4.8125C3.26185 0 2 1.26185 2 2.8125V42.1875C2 43.7382 3.26185 45 4.8125 45H14.1875C15.7382 45 17 43.7382 17 42.1875V2.8125C16.9999 1.26185 15.7381 0 14.1874 0Z" fill="currentColor" />
  <path d="M36.6874 0H27.3125C25.7618 0 24.5 1.26185 24.5 2.8125V42.1875C24.5 43.7382 25.7618 45 27.3125 45H36.6875C38.2382 45 39.5 43.7382 39.5 42.1875V2.8125C39.4999 1.26185 38.2381 0 36.6874 0Z" fill="currentColor"/>
</svg>
