<svg viewBox="0 0 45 45" fill="none" xmlns="http://www.w3.org/2000/svg">
  <path d="M40.9821 18.4821H27.3214C26.8777 18.4821 26.5179 18.1223 26.5179 17.6786V4.01786C26.5179 1.79901 24.7188 0 22.5 0C20.2812 0 18.4821 1.79901 18.4821 4.01786V17.6786C18.4821 18.1223 18.1223 18.4821 17.6786 18.4821H4.01786C1.79901 18.4821 0 20.2812 0 22.5C0 24.7188 1.79901 26.5179 4.01786 26.5179H17.6786C18.1223 26.5179 18.4821 26.8777 18.4821 27.3214V40.9821C18.4821 43.201 20.2812 45 22.5 45C24.7188 45 26.5179 43.201 26.5179 40.9821V27.3214C26.5179 26.8777 26.8777 26.5179 27.3214 26.5179H40.9821C43.201 26.5179 45 24.7188 45 22.5C45 20.2812 43.201 18.4821 40.9821 18.4821Z" fill="currentColor"/>
</svg>
