<svg viewBox="0 0 45 45" fill="none" xmlns="http://www.w3.org/2000/svg">
  <g clip-path="url(#clip0)">
    <path d="M41.7165 0.0215149C40.7996 0.0215149 39.8123 0.397184 38.7852 1.10512L13.7927 18.3231C12.1839 19.4312 11.3078 20.9222 11.3078 22.523C11.3074 24.1241 12.1996 25.6162 13.8087 26.7243L38.8228 43.9299C39.8517 44.6382 40.8806 45 41.7957 45H41.7968C42.7779 45 43.5216 44.5984 44.1015 43.8172C44.673 43.0458 44.8937 41.9502 44.8937 40.6247V4.42304C44.894 1.70874 43.728 0.0215149 41.7165 0.0215149Z" fill="currentColor"/>
    <path d="M5.78915 0.00328254L4.58445 0C3.22804 0 2 1.10439 2 2.46154V42.5286C2 43.8858 3.18755 44.9996 4.5447 44.9996H4.58628L5.7669 44.9931C7.12368 44.9931 8.32838 43.8839 8.32838 42.5268V2.46446C8.32874 1.10731 7.14447 0.00328254 5.78915 0.00328254Z" fill="currentColor"/>
  </g>
  <defs>
    <clipPath id="clip0">
      <rect width="45" height="45" fill="white"/>
    </clipPath>
  </defs>
</svg>
