<svg viewBox="0 0 45 45" fill="none" xmlns="http://www.w3.org/2000/svg">
<path d="M34.5 2H10.5C4.70997 2 0 6.71006 0 12.5V26C0 31.79 4.70997 36.5001 10.5 36.5001H15.75C17.4045 36.5001 18.75 35.1545 18.75 33.5001C18.75 31.8456 17.4045 30.5001 15.75 30.5001H11.25C8.35576 30.5001 6.00003 28.1451 6.00003 25.2502V13.25C6.00003 10.355 8.35576 8.00003 11.25 8.00003H33.75C36.6442 8.00003 39 10.3551 39 13.25V25.25C39 28.145 36.6442 30.4999 33.75 30.4999H32.25V26.7499C32.25 26.4657 32.0895 26.2061 31.8352 26.0787C31.5817 25.9527 31.2772 25.9797 31.05 26.15L22.05 32.9C21.861 33.0417 21.75 33.2638 21.75 33.5C21.75 33.7363 21.861 33.9583 22.05 34.1L31.05 40.85C31.182 40.949 31.341 41.0001 31.5 41.0001C31.614 41.0001 31.7295 40.9738 31.8352 40.9213C32.0895 40.7938 32.25 40.5343 32.25 40.2501V36.5001H34.5C40.29 36.5001 45 31.79 45 26V12.5C45 6.71006 40.29 2 34.5 2Z" fill="currentColor"/>
</svg>
