<svg viewBox="0 0 45 45" fill="none" xmlns="http://www.w3.org/2000/svg">
<g clip-path="url(#clip0)">
<path d="M41.2306 17.6336H35.9574C35.2287 17.6336 34.6392 18.2233 34.6392 18.9519V30.8165H16.183V26.8616C16.183 25.7743 14.9385 25.1598 14.0742 25.8073L3.52789 33.717C2.82424 34.2434 2.8253 35.3002 3.52789 35.8258L14.0742 43.7355C14.9259 44.379 16.183 43.7795 16.183 42.6811V38.7262H38.594C40.7748 38.7262 42.5489 36.9522 42.5489 34.7713V18.9519C42.5489 18.2232 41.9592 17.6336 41.2306 17.6336Z" fill="currentColor"/>
<path d="M42.021 7.1758L31.4746 -0.734012C30.6142 -1.38502 29.3659 -0.767323 29.3659 0.320324V4.27523H6.9549C4.77407 4.27523 3 6.0493 3 8.23013V24.0497C3 24.7784 3.58966 25.3504 4.31827 25.3504H9.59144C10.3201 25.3504 10.9097 24.7783 10.9097 24.0497V12.1675H29.3658V16.1399C29.3658 17.2333 30.6219 17.8427 31.4745 17.1943L42.0209 9.28456C42.7246 8.75818 42.7236 7.70129 42.021 7.1758Z" fill="currentColor"/>
</g>
<defs>
<clipPath id="clip0">
<rect width="45" height="45" fill="white"/>
</clipPath>
</defs>
</svg>
