<svg width="45" height="45" viewBox="0 0 45 45" fill="none" xmlns="http://www.w3.org/2000/svg">
<g clip-path="url(#clip0)">
<path d="M4.49526 28.4684C4.84693 28.1403 5.18632 27.8017 5.52156 27.459C6.09491 30.557 7.34759 33.5192 9.62668 36.1615C15.7872 43.3046 26.9024 46.1752 35.0121 40.7298C42.2157 35.8938 46.1758 26.7422 44.6902 18.3234C43.0382 8.96037 35.3606 0.29727 24.6628 1.55605C18.8364 2.24102 13.5963 5.11598 9.93191 9.28102C9.85694 9.34768 9.79028 9.4208 9.72418 9.49577C9.64358 9.58764 9.56898 9.68282 9.50333 9.78641C9.35709 10.0181 9.24399 10.2721 9.19007 10.552L9.14464 10.7855C8.89896 12.0611 9.81189 13.3411 11.1513 13.5994C11.9375 13.7514 12.712 13.5141 13.2723 13.0401C13.495 12.852 13.6782 12.6261 13.8179 12.3701C13.8489 12.3125 13.8874 12.2595 13.9136 12.1989C13.9249 12.205 13.938 12.2111 13.9492 12.2177C17.5729 8.06757 23.0488 5.34744 28.7355 6.39987C38.1354 8.14125 41.496 18.9572 39.2541 26.7769C37.3189 33.5277 30.8804 40.3412 22.8156 38.644C18.0019 37.6308 13.0689 34.2478 11.2624 29.7376C11.074 29.2669 10.9127 28.7943 10.7729 28.3189C11.4307 28.8674 12.1222 29.3822 12.8451 29.8567C13.9774 30.5992 15.4003 30.7221 16.3689 29.6654C17.1762 28.7848 17.2381 27.0371 16.105 26.294C14.5878 25.2986 13.2667 24.1635 12.1171 22.8757C11.4219 22.0969 10.7913 21.2601 10.223 20.3599C10.0987 20.1625 9.9717 19.9675 9.85306 19.7641C9.27787 18.7776 8.37011 18.5039 7.52348 18.6815C6.84229 18.6867 6.178 18.9299 5.77943 19.4701C5.50651 19.839 5.22519 20.2005 4.94489 20.5629C4.64012 20.9567 4.3274 21.3435 4.01192 21.7275C2.9847 22.9745 1.90079 24.1743 0.707094 25.2873C-1.58316 27.4253 2.22762 30.5838 4.49526 28.4684Z" fill="currentColor"/>
<g clip-path="url(#clip1)">
<path d="M22.4036 15.3528C20.9611 14.5254 19.7916 15.2032 19.7916 16.8656V29.1332C19.7916 30.7973 20.9611 31.4743 22.4036 30.6476L33.1262 24.4983C34.5691 23.6706 34.5691 22.3295 33.1262 21.502L22.4036 15.3528Z" fill="currentColor"/>
</g>
</g>
<defs>
<clipPath id="clip0">
<rect width="45" height="45.0001" fill="white" transform="translate(45 45.0001) rotate(-180)"/>
</clipPath>
<clipPath id="clip1">
<rect width="16" height="16" fill="white" transform="translate(19 15)"/>
</clipPath>
</defs>
</svg>
