<svg viewBox="0 0 45 45" fill="none" xmlns="http://www.w3.org/2000/svg">
<path d="M43.7827 27.4313L39.6465 24.1969C39.699 23.6981 39.744 23.1151 39.744 22.4982C39.744 21.8813 39.7008 21.2982 39.6465 20.7994L43.7865 17.5632C44.5553 16.9557 44.7653 15.8775 44.2759 14.9795L39.9746 7.5375C39.5152 6.69753 38.5083 6.26625 37.4865 6.64312L32.6059 8.60247C31.6703 7.92747 30.6896 7.3575 29.6752 6.90187L28.9327 1.72503C28.8108 0.7425 27.9558 0 26.9453 0H18.3203C17.3096 0 16.4566 0.7425 16.3365 1.71L15.5922 6.90565C14.6096 7.34818 13.6441 7.91068 12.6672 8.60625L7.77341 6.64128C6.85645 6.2869 5.75957 6.68435 5.30395 7.52063L0.99713 14.9719C0.489034 15.8307 0.699005 16.9463 1.48466 17.5688L5.62088 20.8032C5.55523 21.435 5.52341 21.9844 5.52341 22.5001C5.52341 23.0157 5.55531 23.5651 5.62088 24.1988L1.48088 27.4351C0.7121 28.0444 0.503975 29.1226 0.99335 30.0188L5.29463 37.4607C5.75403 38.2988 6.7515 38.7337 7.78273 38.355L12.6634 36.3957C13.5971 37.0688 14.5777 37.6388 15.5922 38.0963L16.3347 43.2713C16.4565 44.2575 17.3096 45 18.3221 45H26.9471C27.9578 45 28.8128 44.2575 28.9327 43.29L29.6771 38.0963C30.6596 37.6519 31.6233 37.0912 32.6021 36.3937L37.4958 38.3587C37.7321 38.4506 37.9777 38.4975 38.2309 38.4975C38.9583 38.4975 39.6277 38.1 39.9652 37.4812L44.2852 30C44.7653 29.1225 44.5552 28.0444 43.7827 27.4313ZM22.6327 30C18.4965 30 15.1328 26.6362 15.1328 22.5C15.1328 18.3638 18.4965 15 22.6327 15C26.7689 15 30.1327 18.3638 30.1327 22.5C30.1327 26.6362 26.7689 30 22.6327 30Z" fill="black"/>
</svg>
