<svg width="24" height="20" viewBox="0 0 24 20" fill="none" xmlns="http://www.w3.org/2000/svg">
<g clip-path="url(#clip0)">
<path d="M14.1506 6.92702C14.8814 6.18519 15.7381 5.79307 16.6281 5.79307H19.7618L18.5706 6.98423C18.4553 7.09951 18.3639 7.23636 18.3015 7.38697C18.2391 7.53759 18.207 7.69901 18.207 7.86204C18.207 8.02506 18.2391 8.18649 18.3015 8.33711C18.3639 8.48772 18.4553 8.62457 18.5706 8.73985C18.8034 8.97266 19.1192 9.10345 19.4484 9.10345C19.6114 9.10345 19.7729 9.07134 19.9235 9.00895C20.0741 8.94657 20.2109 8.85513 20.3262 8.73985L23.6366 5.4295C23.7518 5.31423 23.8433 5.17738 23.9057 5.02677C23.9681 4.87615 24.0002 4.71472 24.0002 4.55169C24.0002 4.38867 23.9681 4.22724 23.9057 4.07662C23.8433 3.92601 23.7518 3.78916 23.6366 3.67388L20.3262 0.36354C20.2109 0.248264 20.0741 0.156822 19.9235 0.0944356C19.7729 0.0320488 19.6114 -6.10352e-05 19.4484 -6.10352e-05C19.2854 -6.10352e-05 19.1239 0.0320488 18.9733 0.0944356C18.8227 0.156822 18.6859 0.248264 18.5706 0.36354C18.4553 0.478816 18.3639 0.615668 18.3015 0.766283C18.2391 0.916898 18.207 1.07833 18.207 1.24135C18.207 1.40437 18.2391 1.5658 18.3015 1.71642C18.3639 1.86703 18.4553 2.00388 18.5706 2.11916L19.7618 3.31032H16.6281C14.77 3.31032 13.0665 4.24492 11.8408 5.79711C12.3925 6.61863 12.8159 7.5193 13.0967 8.46819C13.3593 7.89911 13.7155 7.37815 14.1506 6.92702V6.92702Z" fill="currentColor"/>
<path d="M8.50614 12.935C7.77522 13.6769 6.91846 14.069 6.0285 14.069H1.24138C0.912145 14.069 0.596395 14.1998 0.363592 14.4326C0.130788 14.6654 0 14.9811 0 15.3104C0 15.6396 0.130788 15.9553 0.363592 16.1881C0.596395 16.4209 0.912145 16.5517 1.24138 16.5517H6.0285C7.88664 16.5517 9.59012 15.6171 10.8158 14.0649C10.2641 13.2434 9.8406 12.3428 9.55981 11.3939C9.29728 11.9629 8.94111 12.4839 8.50614 12.935V12.935Z" fill="currentColor"/>
<path d="M20.3261 11.1222C20.2108 11.0069 20.074 10.9155 19.9233 10.8531C19.7727 10.7907 19.6113 10.7586 19.4483 10.7586C19.2853 10.7586 19.1238 10.7907 18.9732 10.8531C18.8226 10.9155 18.6857 11.0069 18.5705 11.1222C18.4552 11.2375 18.3637 11.3743 18.3014 11.525C18.239 11.6756 18.2069 11.837 18.2069 12C18.2069 12.163 18.239 12.3245 18.3014 12.4751C18.3637 12.6257 18.4552 12.7626 18.5705 12.8778L19.7617 14.069H16.628C15.738 14.069 14.8813 13.6769 14.1504 12.935C13.3649 12.1377 12.7956 10.9877 12.5473 9.69664C11.8241 5.93645 9.14353 3.31036 6.0285 3.31036H1.24138C0.912145 3.31036 0.596395 3.44115 0.363592 3.67396C0.130788 3.90676 0 4.22251 0 4.55174C0 4.88098 0.130788 5.19673 0.363592 5.42953C0.596395 5.66233 0.912145 5.79312 1.24138 5.79312H6.0285C6.91847 5.79312 7.77522 6.18524 8.50609 6.92707C9.29157 7.72435 9.8609 8.87443 10.1092 10.1655C10.8323 13.9256 13.5129 16.5517 16.628 16.5517H19.7617L18.5705 17.7429C18.3377 17.9757 18.2069 18.2915 18.2069 18.6207C18.2069 18.95 18.3377 19.2657 18.5705 19.4985C18.8033 19.7313 19.119 19.8621 19.4483 19.8621C19.7775 19.8621 20.0933 19.7313 20.3261 19.4985L23.6364 16.1882C23.7517 16.0729 23.8432 15.936 23.9055 15.7854C23.9679 15.6348 24 15.4734 24 15.3104C24 15.1473 23.9679 14.9859 23.9055 14.8353C23.8432 14.6847 23.7517 14.5478 23.6364 14.4326L20.3261 11.1222Z" fill="currentColor"/>
</g>
<defs>
<clipPath id="clip0">
<rect width="24" height="19.8621" fill="white"/>
</clipPath>
</defs>
</svg>
