<svg viewBox="0 0 45 45" fill="none" xmlns="http://www.w3.org/2000/svg">
  <path d="M22.4999 11.25C16.2899 11.25 11.2499 16.2901 11.2499 22.5001C11.2499 28.7101 16.2899 33.75 22.4999 33.75C28.7099 33.75 33.7499 28.71 33.7499 22.5C33.7499 16.29 28.7099 11.25 22.4999 11.25Z" fill="currentColor" />
  <path d="M22.4999 0C10.0688 0 0 10.0688 0 22.4999C0 34.9311 10.0688 44.9999 22.4999 44.9999C34.9311 44.9999 45 34.9312 45 22.4999C45 10.0687 34.9312 0 22.4999 0ZM22.4999 40.5C12.555 40.5 4.49993 32.445 4.49993 22.4999C4.49993 12.5549 12.555 4.50003 22.4999 4.50003C32.4449 4.50003 40.5 12.555 40.5 22.4999C40.5 32.4449 32.445 40.5 22.4999 40.5Z" fill="currentColor" />
</svg>
